<mxfile host="app.diagrams.net" agent="Mozilla/5.0 (Windows NT 10.0; Win64; x64) AppleWebKit/537.36 (KHTML, like Gecko) Chrome/131.0.0.0 Safari/537.36" version="26.0.8">
  <diagram name="Página-1" id="kD2pXu33aiupnDGsfzcF">
    <mxGraphModel dx="1120" dy="434" grid="1" gridSize="10" guides="1" tooltips="1" connect="1" arrows="1" fold="1" page="1" pageScale="1" pageWidth="827" pageHeight="1169" math="0" shadow="0">
      <root>
        <mxCell id="0" />
        <mxCell id="1" parent="0" />
        <mxCell id="SGLUg8fZmtAf4TUcIjIm-114" value="" style="rounded=0;whiteSpace=wrap;html=1;fillColor=none;" parent="1" vertex="1">
          <mxGeometry x="540" y="1610" width="420" height="410" as="geometry" />
        </mxCell>
        <mxCell id="SGLUg8fZmtAf4TUcIjIm-81" value="" style="rounded=0;whiteSpace=wrap;html=1;fillColor=none;" parent="1" vertex="1">
          <mxGeometry x="530" y="1160" width="420" height="410" as="geometry" />
        </mxCell>
        <mxCell id="SGLUg8fZmtAf4TUcIjIm-131" value="" style="rounded=0;whiteSpace=wrap;html=1;fillColor=none;" parent="1" vertex="1">
          <mxGeometry x="325" y="2040" width="420" height="410" as="geometry" />
        </mxCell>
        <mxCell id="SGLUg8fZmtAf4TUcIjIm-1" value="" style="rounded=0;whiteSpace=wrap;html=1;fillColor=none;" parent="1" vertex="1">
          <mxGeometry x="500" y="390" width="400" height="370" as="geometry" />
        </mxCell>
        <mxCell id="SGLUg8fZmtAf4TUcIjIm-7" value="" style="rounded=0;whiteSpace=wrap;html=1;fillColor=none;" parent="1" vertex="1">
          <mxGeometry x="120" y="470" width="210" height="180" as="geometry" />
        </mxCell>
        <mxCell id="OUi7C1fRv3OiWJFdQNW4-14" value="" style="rounded=0;whiteSpace=wrap;html=1;fillColor=none;" parent="1" vertex="1">
          <mxGeometry x="210" y="70" width="290" height="280" as="geometry" />
        </mxCell>
        <mxCell id="OUi7C1fRv3OiWJFdQNW4-6" value="Aluno" style="shape=umlActor;verticalLabelPosition=bottom;verticalAlign=top;html=1;outlineConnect=0;" parent="1" vertex="1">
          <mxGeometry x="130" y="170" width="30" height="60" as="geometry" />
        </mxCell>
        <mxCell id="OUi7C1fRv3OiWJFdQNW4-12" value="Fazer Login" style="ellipse;whiteSpace=wrap;html=1;" parent="1" vertex="1">
          <mxGeometry x="270" y="160" width="120" height="80" as="geometry" />
        </mxCell>
        <mxCell id="OUi7C1fRv3OiWJFdQNW4-13" value="" style="endArrow=none;html=1;rounded=0;" parent="1" edge="1">
          <mxGeometry width="50" height="50" relative="1" as="geometry">
            <mxPoint x="170" y="200" as="sourcePoint" />
            <mxPoint x="250" y="200" as="targetPoint" />
          </mxGeometry>
        </mxCell>
        <mxCell id="OUi7C1fRv3OiWJFdQNW4-15" value="Login" style="text;html=1;align=center;verticalAlign=middle;whiteSpace=wrap;rounded=0;" parent="1" vertex="1">
          <mxGeometry x="325" y="70" width="60" height="30" as="geometry" />
        </mxCell>
        <mxCell id="SGLUg8fZmtAf4TUcIjIm-2" value="Aluno" style="shape=umlActor;verticalLabelPosition=bottom;verticalAlign=top;html=1;outlineConnect=0;" parent="1" vertex="1">
          <mxGeometry x="50" y="530" width="30" height="60" as="geometry" />
        </mxCell>
        <mxCell id="SGLUg8fZmtAf4TUcIjIm-3" value="Enviar mensagem" style="ellipse;whiteSpace=wrap;html=1;" parent="1" vertex="1">
          <mxGeometry x="165" y="520" width="120" height="80" as="geometry" />
        </mxCell>
        <mxCell id="SGLUg8fZmtAf4TUcIjIm-4" value="" style="endArrow=none;html=1;rounded=0;" parent="1" edge="1">
          <mxGeometry width="50" height="50" relative="1" as="geometry">
            <mxPoint x="90" y="560" as="sourcePoint" />
            <mxPoint x="150" y="560" as="targetPoint" />
          </mxGeometry>
        </mxCell>
        <mxCell id="SGLUg8fZmtAf4TUcIjIm-5" value="Recepção e Resposta - Whatsapp" style="text;html=1;align=center;verticalAlign=middle;whiteSpace=wrap;rounded=0;" parent="1" vertex="1">
          <mxGeometry x="580" y="400" width="210" height="30" as="geometry" />
        </mxCell>
        <mxCell id="SGLUg8fZmtAf4TUcIjIm-8" value="Fora do Sistema" style="text;html=1;align=center;verticalAlign=middle;whiteSpace=wrap;rounded=0;" parent="1" vertex="1">
          <mxGeometry x="120" y="480" width="210" height="30" as="geometry" />
        </mxCell>
        <mxCell id="SGLUg8fZmtAf4TUcIjIm-9" value="&lt;br&gt;WhatsApp&amp;nbsp; API&lt;div&gt;&lt;br/&gt;&lt;/div&gt;" style="shape=umlActor;verticalLabelPosition=bottom;verticalAlign=top;html=1;outlineConnect=0;" parent="1" vertex="1">
          <mxGeometry x="430" y="440" width="30" height="60" as="geometry" />
        </mxCell>
        <mxCell id="SGLUg8fZmtAf4TUcIjIm-12" value="Capturar Mensagem" style="ellipse;whiteSpace=wrap;html=1;" parent="1" vertex="1">
          <mxGeometry x="530" y="450" width="120" height="80" as="geometry" />
        </mxCell>
        <mxCell id="SGLUg8fZmtAf4TUcIjIm-13" value="" style="endArrow=classic;html=1;rounded=0;" parent="1" edge="1">
          <mxGeometry width="50" height="50" relative="1" as="geometry">
            <mxPoint x="335" y="550" as="sourcePoint" />
            <mxPoint x="420" y="490" as="targetPoint" />
          </mxGeometry>
        </mxCell>
        <mxCell id="SGLUg8fZmtAf4TUcIjIm-14" value="&amp;lt;&amp;lt;Include&amp;gt;&amp;gt;" style="endArrow=none;html=1;rounded=0;exitX=0;exitY=0.5;exitDx=0;exitDy=0;entryX=1;entryY=0.5;entryDx=0;entryDy=0;startArrow=classic;startFill=0;" parent="1" source="SGLUg8fZmtAf4TUcIjIm-15" target="SGLUg8fZmtAf4TUcIjIm-12" edge="1">
          <mxGeometry y="10" width="50" height="50" relative="1" as="geometry">
            <mxPoint x="665" y="530" as="sourcePoint" />
            <mxPoint x="760" y="470" as="targetPoint" />
            <mxPoint as="offset" />
          </mxGeometry>
        </mxCell>
        <mxCell id="SGLUg8fZmtAf4TUcIjIm-15" value="Verificar conteúdo da mensagem" style="ellipse;whiteSpace=wrap;html=1;" parent="1" vertex="1">
          <mxGeometry x="740" y="450" width="120" height="80" as="geometry" />
        </mxCell>
        <mxCell id="SGLUg8fZmtAf4TUcIjIm-16" value="&lt;div&gt;N8N&lt;/div&gt;" style="shape=umlActor;verticalLabelPosition=bottom;verticalAlign=top;html=1;outlineConnect=0;" parent="1" vertex="1">
          <mxGeometry x="930" y="460" width="30" height="60" as="geometry" />
        </mxCell>
        <mxCell id="SGLUg8fZmtAf4TUcIjIm-17" value="" style="endArrow=none;html=1;rounded=0;" parent="1" edge="1">
          <mxGeometry width="50" height="50" relative="1" as="geometry">
            <mxPoint x="450" y="480" as="sourcePoint" />
            <mxPoint x="530" y="480" as="targetPoint" />
          </mxGeometry>
        </mxCell>
        <mxCell id="SGLUg8fZmtAf4TUcIjIm-19" value="" style="endArrow=none;html=1;rounded=0;" parent="1" edge="1">
          <mxGeometry width="50" height="50" relative="1" as="geometry">
            <mxPoint x="860" y="494.5" as="sourcePoint" />
            <mxPoint x="940" y="494.5" as="targetPoint" />
          </mxGeometry>
        </mxCell>
        <mxCell id="SGLUg8fZmtAf4TUcIjIm-20" value="&amp;lt;&amp;lt;Include&amp;gt;&amp;gt;" style="endArrow=none;html=1;rounded=0;exitX=0.75;exitY=0.559;exitDx=0;exitDy=0;entryX=0.5;entryY=1;entryDx=0;entryDy=0;startArrow=classic;startFill=0;exitPerimeter=0;" parent="1" source="SGLUg8fZmtAf4TUcIjIm-1" target="SGLUg8fZmtAf4TUcIjIm-15" edge="1">
          <mxGeometry y="10" width="50" height="50" relative="1" as="geometry">
            <mxPoint x="820" y="559.5" as="sourcePoint" />
            <mxPoint x="730" y="559.5" as="targetPoint" />
            <mxPoint as="offset" />
          </mxGeometry>
        </mxCell>
        <mxCell id="SGLUg8fZmtAf4TUcIjIm-21" value="Processar mensagem" style="ellipse;whiteSpace=wrap;html=1;" parent="1" vertex="1">
          <mxGeometry x="740" y="600" width="120" height="80" as="geometry" />
        </mxCell>
        <mxCell id="SGLUg8fZmtAf4TUcIjIm-22" value="Open AI API" style="shape=umlActor;verticalLabelPosition=bottom;verticalAlign=top;html=1;outlineConnect=0;" parent="1" vertex="1">
          <mxGeometry x="930" y="595" width="30" height="60" as="geometry" />
        </mxCell>
        <mxCell id="SGLUg8fZmtAf4TUcIjIm-25" value="" style="endArrow=none;html=1;rounded=0;" parent="1" edge="1">
          <mxGeometry width="50" height="50" relative="1" as="geometry">
            <mxPoint x="860" y="630" as="sourcePoint" />
            <mxPoint x="940" y="630" as="targetPoint" />
          </mxGeometry>
        </mxCell>
        <mxCell id="SGLUg8fZmtAf4TUcIjIm-26" value="Armazenar contexto no Buffer" style="ellipse;whiteSpace=wrap;html=1;" parent="1" vertex="1">
          <mxGeometry x="550" y="595" width="120" height="80" as="geometry" />
        </mxCell>
        <mxCell id="SGLUg8fZmtAf4TUcIjIm-27" value="Enviar mensagem para o usuário" style="ellipse;whiteSpace=wrap;html=1;" parent="1" vertex="1">
          <mxGeometry x="625" y="675" width="120" height="80" as="geometry" />
        </mxCell>
        <mxCell id="SGLUg8fZmtAf4TUcIjIm-28" value="&amp;lt;&amp;lt;Include&amp;gt;&amp;gt;" style="endArrow=none;html=1;rounded=0;entryX=-0.008;entryY=0.4;entryDx=0;entryDy=0;startArrow=classic;startFill=0;entryPerimeter=0;" parent="1" source="SGLUg8fZmtAf4TUcIjIm-26" target="SGLUg8fZmtAf4TUcIjIm-21" edge="1">
          <mxGeometry y="10" width="50" height="50" relative="1" as="geometry">
            <mxPoint x="720" y="608.5" as="sourcePoint" />
            <mxPoint x="720" y="541.5" as="targetPoint" />
            <mxPoint as="offset" />
          </mxGeometry>
        </mxCell>
        <mxCell id="SGLUg8fZmtAf4TUcIjIm-29" value="&amp;lt;&amp;lt;Include&amp;gt;&amp;gt;" style="endArrow=none;html=1;rounded=0;entryX=0;entryY=1;entryDx=0;entryDy=0;startArrow=classic;startFill=0;" parent="1" source="SGLUg8fZmtAf4TUcIjIm-27" target="SGLUg8fZmtAf4TUcIjIm-21" edge="1">
          <mxGeometry x="-1" y="33" width="50" height="50" relative="1" as="geometry">
            <mxPoint x="680" y="644" as="sourcePoint" />
            <mxPoint x="749" y="642" as="targetPoint" />
            <mxPoint as="offset" />
          </mxGeometry>
        </mxCell>
        <mxCell id="SGLUg8fZmtAf4TUcIjIm-31" value="" style="rounded=0;whiteSpace=wrap;html=1;fillColor=none;" parent="1" vertex="1">
          <mxGeometry x="500" y="780" width="400" height="370" as="geometry" />
        </mxCell>
        <mxCell id="SGLUg8fZmtAf4TUcIjIm-32" value="" style="rounded=0;whiteSpace=wrap;html=1;fillColor=none;" parent="1" vertex="1">
          <mxGeometry x="120" y="860" width="210" height="180" as="geometry" />
        </mxCell>
        <mxCell id="SGLUg8fZmtAf4TUcIjIm-33" value="Aluno" style="shape=umlActor;verticalLabelPosition=bottom;verticalAlign=top;html=1;outlineConnect=0;" parent="1" vertex="1">
          <mxGeometry x="50" y="920" width="30" height="60" as="geometry" />
        </mxCell>
        <mxCell id="SGLUg8fZmtAf4TUcIjIm-34" value="Enviar mensagem" style="ellipse;whiteSpace=wrap;html=1;" parent="1" vertex="1">
          <mxGeometry x="165" y="910" width="120" height="80" as="geometry" />
        </mxCell>
        <mxCell id="SGLUg8fZmtAf4TUcIjIm-35" value="" style="endArrow=none;html=1;rounded=0;" parent="1" edge="1">
          <mxGeometry width="50" height="50" relative="1" as="geometry">
            <mxPoint x="90" y="950" as="sourcePoint" />
            <mxPoint x="160" y="950" as="targetPoint" />
          </mxGeometry>
        </mxCell>
        <mxCell id="SGLUg8fZmtAf4TUcIjIm-36" value="Recepção e Resposta -&amp;nbsp; Telegram" style="text;html=1;align=center;verticalAlign=middle;whiteSpace=wrap;rounded=0;" parent="1" vertex="1">
          <mxGeometry x="580" y="790" width="210" height="30" as="geometry" />
        </mxCell>
        <mxCell id="SGLUg8fZmtAf4TUcIjIm-37" value="Fora do Sistema" style="text;html=1;align=center;verticalAlign=middle;whiteSpace=wrap;rounded=0;" parent="1" vertex="1">
          <mxGeometry x="120" y="870" width="210" height="30" as="geometry" />
        </mxCell>
        <mxCell id="SGLUg8fZmtAf4TUcIjIm-38" value="Telegram API" style="shape=umlActor;verticalLabelPosition=bottom;verticalAlign=top;html=1;outlineConnect=0;" parent="1" vertex="1">
          <mxGeometry x="430" y="830" width="30" height="60" as="geometry" />
        </mxCell>
        <mxCell id="SGLUg8fZmtAf4TUcIjIm-39" value="Capturar mensagem" style="ellipse;whiteSpace=wrap;html=1;" parent="1" vertex="1">
          <mxGeometry x="530" y="840" width="120" height="80" as="geometry" />
        </mxCell>
        <mxCell id="SGLUg8fZmtAf4TUcIjIm-40" value="" style="endArrow=classic;html=1;rounded=0;" parent="1" edge="1">
          <mxGeometry width="50" height="50" relative="1" as="geometry">
            <mxPoint x="335" y="940" as="sourcePoint" />
            <mxPoint x="420" y="880" as="targetPoint" />
          </mxGeometry>
        </mxCell>
        <mxCell id="SGLUg8fZmtAf4TUcIjIm-41" value="&amp;lt;&amp;lt;Include&amp;gt;&amp;gt;" style="endArrow=none;html=1;rounded=0;exitX=0;exitY=0.5;exitDx=0;exitDy=0;entryX=1;entryY=0.5;entryDx=0;entryDy=0;startArrow=classic;startFill=0;" parent="1" target="SGLUg8fZmtAf4TUcIjIm-39" edge="1">
          <mxGeometry y="10" width="50" height="50" relative="1" as="geometry">
            <mxPoint x="740" y="880" as="sourcePoint" />
            <mxPoint x="760" y="860" as="targetPoint" />
            <mxPoint as="offset" />
          </mxGeometry>
        </mxCell>
        <mxCell id="SGLUg8fZmtAf4TUcIjIm-44" value="" style="endArrow=none;html=1;rounded=0;" parent="1" edge="1">
          <mxGeometry width="50" height="50" relative="1" as="geometry">
            <mxPoint x="450" y="870" as="sourcePoint" />
            <mxPoint x="530" y="870" as="targetPoint" />
          </mxGeometry>
        </mxCell>
        <mxCell id="SGLUg8fZmtAf4TUcIjIm-47" value="Processar mensagem" style="ellipse;whiteSpace=wrap;html=1;" parent="1" vertex="1">
          <mxGeometry x="745" y="845" width="120" height="80" as="geometry" />
        </mxCell>
        <mxCell id="SGLUg8fZmtAf4TUcIjIm-48" value="Open AI API" style="shape=umlActor;verticalLabelPosition=bottom;verticalAlign=top;html=1;outlineConnect=0;" parent="1" vertex="1">
          <mxGeometry x="950" y="840" width="30" height="60" as="geometry" />
        </mxCell>
        <mxCell id="SGLUg8fZmtAf4TUcIjIm-49" value="" style="endArrow=none;html=1;rounded=0;exitX=1.008;exitY=0.375;exitDx=0;exitDy=0;exitPerimeter=0;" parent="1" source="SGLUg8fZmtAf4TUcIjIm-47" edge="1">
          <mxGeometry width="50" height="50" relative="1" as="geometry">
            <mxPoint x="860" y="1020" as="sourcePoint" />
            <mxPoint x="940" y="875" as="targetPoint" />
          </mxGeometry>
        </mxCell>
        <mxCell id="SGLUg8fZmtAf4TUcIjIm-50" value="Armazenar o Contexto no Buffer" style="ellipse;whiteSpace=wrap;html=1;" parent="1" vertex="1">
          <mxGeometry x="590" y="1000" width="120" height="80" as="geometry" />
        </mxCell>
        <mxCell id="SGLUg8fZmtAf4TUcIjIm-51" value="Enviar mensagem para o usuário" style="ellipse;whiteSpace=wrap;html=1;" parent="1" vertex="1">
          <mxGeometry x="745" y="1010" width="120" height="80" as="geometry" />
        </mxCell>
        <mxCell id="SGLUg8fZmtAf4TUcIjIm-52" value="&amp;lt;&amp;lt;Include&amp;gt;&amp;gt;" style="endArrow=none;html=1;rounded=0;entryX=0;entryY=1;entryDx=0;entryDy=0;startArrow=classic;startFill=0;" parent="1" source="SGLUg8fZmtAf4TUcIjIm-50" target="SGLUg8fZmtAf4TUcIjIm-47" edge="1">
          <mxGeometry x="-0.0714" y="29" width="50" height="50" relative="1" as="geometry">
            <mxPoint x="720" y="998.5" as="sourcePoint" />
            <mxPoint x="720" y="931.5" as="targetPoint" />
            <mxPoint as="offset" />
          </mxGeometry>
        </mxCell>
        <mxCell id="SGLUg8fZmtAf4TUcIjIm-53" value="&amp;lt;&amp;lt;Include&amp;gt;&amp;gt;" style="endArrow=none;html=1;rounded=0;entryX=0.5;entryY=1;entryDx=0;entryDy=0;startArrow=classic;startFill=0;" parent="1" source="SGLUg8fZmtAf4TUcIjIm-51" target="SGLUg8fZmtAf4TUcIjIm-47" edge="1">
          <mxGeometry x="-0.0112" y="-41" width="50" height="50" relative="1" as="geometry">
            <mxPoint x="680" y="1034" as="sourcePoint" />
            <mxPoint x="749" y="1032" as="targetPoint" />
            <mxPoint as="offset" />
          </mxGeometry>
        </mxCell>
        <mxCell id="SGLUg8fZmtAf4TUcIjIm-57" value="" style="rounded=0;whiteSpace=wrap;html=1;fillColor=none;" parent="1" vertex="1">
          <mxGeometry x="130" y="1220" width="210" height="180" as="geometry" />
        </mxCell>
        <mxCell id="SGLUg8fZmtAf4TUcIjIm-58" value="Professor" style="shape=umlActor;verticalLabelPosition=bottom;verticalAlign=top;html=1;outlineConnect=0;" parent="1" vertex="1">
          <mxGeometry x="60" y="1280" width="30" height="60" as="geometry" />
        </mxCell>
        <mxCell id="SGLUg8fZmtAf4TUcIjIm-59" value="Envia Email" style="ellipse;whiteSpace=wrap;html=1;" parent="1" vertex="1">
          <mxGeometry x="175" y="1270" width="120" height="80" as="geometry" />
        </mxCell>
        <mxCell id="SGLUg8fZmtAf4TUcIjIm-60" value="" style="endArrow=none;html=1;rounded=0;" parent="1" edge="1">
          <mxGeometry width="50" height="50" relative="1" as="geometry">
            <mxPoint x="100" y="1310" as="sourcePoint" />
            <mxPoint x="170" y="1310" as="targetPoint" />
          </mxGeometry>
        </mxCell>
        <mxCell id="SGLUg8fZmtAf4TUcIjIm-61" value="Fora do Sistema" style="text;html=1;align=center;verticalAlign=middle;whiteSpace=wrap;rounded=0;" parent="1" vertex="1">
          <mxGeometry x="130" y="1230" width="210" height="30" as="geometry" />
        </mxCell>
        <mxCell id="SGLUg8fZmtAf4TUcIjIm-62" value="" style="endArrow=classic;html=1;rounded=0;" parent="1" edge="1">
          <mxGeometry width="50" height="50" relative="1" as="geometry">
            <mxPoint x="340" y="1300" as="sourcePoint" />
            <mxPoint x="425" y="1240" as="targetPoint" />
          </mxGeometry>
        </mxCell>
        <mxCell id="SGLUg8fZmtAf4TUcIjIm-63" value="Gmail API" style="shape=umlActor;verticalLabelPosition=bottom;verticalAlign=top;html=1;outlineConnect=0;" parent="1" vertex="1">
          <mxGeometry x="450" y="1190" width="30" height="60" as="geometry" />
        </mxCell>
        <mxCell id="SGLUg8fZmtAf4TUcIjIm-65" value="" style="endArrow=none;html=1;rounded=0;" parent="1" edge="1">
          <mxGeometry width="50" height="50" relative="1" as="geometry">
            <mxPoint x="480" y="1230" as="sourcePoint" />
            <mxPoint x="560" y="1230" as="targetPoint" />
          </mxGeometry>
        </mxCell>
        <mxCell id="SGLUg8fZmtAf4TUcIjIm-66" value="Capturar conteúdo do email" style="ellipse;whiteSpace=wrap;html=1;" parent="1" vertex="1">
          <mxGeometry x="570" y="1190" width="120" height="80" as="geometry" />
        </mxCell>
        <mxCell id="SGLUg8fZmtAf4TUcIjIm-67" value="Classificar email" style="ellipse;whiteSpace=wrap;html=1;" parent="1" vertex="1">
          <mxGeometry x="790" y="1190" width="120" height="80" as="geometry" />
        </mxCell>
        <mxCell id="SGLUg8fZmtAf4TUcIjIm-68" value="&lt;div&gt;N8N&lt;/div&gt;" style="shape=umlActor;verticalLabelPosition=bottom;verticalAlign=top;html=1;outlineConnect=0;" parent="1" vertex="1">
          <mxGeometry x="1010" y="1190" width="30" height="60" as="geometry" />
        </mxCell>
        <mxCell id="SGLUg8fZmtAf4TUcIjIm-69" value="" style="endArrow=none;html=1;rounded=0;" parent="1" edge="1">
          <mxGeometry width="50" height="50" relative="1" as="geometry">
            <mxPoint x="920" y="1230" as="sourcePoint" />
            <mxPoint x="1000" y="1230" as="targetPoint" />
          </mxGeometry>
        </mxCell>
        <mxCell id="SGLUg8fZmtAf4TUcIjIm-70" value="Open AI API" style="shape=umlActor;verticalLabelPosition=bottom;verticalAlign=top;html=1;outlineConnect=0;" parent="1" vertex="1">
          <mxGeometry x="1010" y="1330" width="30" height="60" as="geometry" />
        </mxCell>
        <mxCell id="SGLUg8fZmtAf4TUcIjIm-71" value="Gerar resumo do conteúdo" style="ellipse;whiteSpace=wrap;html=1;" parent="1" vertex="1">
          <mxGeometry x="790" y="1330" width="120" height="80" as="geometry" />
        </mxCell>
        <mxCell id="SGLUg8fZmtAf4TUcIjIm-72" value="Marcar importância" style="ellipse;whiteSpace=wrap;html=1;" parent="1" vertex="1">
          <mxGeometry x="600" y="1330" width="120" height="80" as="geometry" />
        </mxCell>
        <mxCell id="SGLUg8fZmtAf4TUcIjIm-73" value="Enviar notificação para o usuário" style="ellipse;whiteSpace=wrap;html=1;" parent="1" vertex="1">
          <mxGeometry x="790" y="1470" width="120" height="80" as="geometry" />
        </mxCell>
        <mxCell id="SGLUg8fZmtAf4TUcIjIm-74" value="&amp;lt;&amp;lt;Include&amp;gt;&amp;gt;" style="endArrow=classic;html=1;rounded=0;exitX=1;exitY=0.5;exitDx=0;exitDy=0;entryX=0;entryY=0.5;entryDx=0;entryDy=0;startArrow=none;startFill=0;endFill=1;" parent="1" source="SGLUg8fZmtAf4TUcIjIm-66" target="SGLUg8fZmtAf4TUcIjIm-67" edge="1">
          <mxGeometry y="10" width="50" height="50" relative="1" as="geometry">
            <mxPoint x="770" y="1290" as="sourcePoint" />
            <mxPoint x="680" y="1290" as="targetPoint" />
            <mxPoint as="offset" />
          </mxGeometry>
        </mxCell>
        <mxCell id="SGLUg8fZmtAf4TUcIjIm-76" value="&amp;lt;&amp;lt;Include&amp;gt;&amp;gt;" style="endArrow=none;html=1;rounded=0;entryX=0;entryY=1;entryDx=0;entryDy=0;startArrow=classic;startFill=0;" parent="1" source="SGLUg8fZmtAf4TUcIjIm-72" target="SGLUg8fZmtAf4TUcIjIm-67" edge="1">
          <mxGeometry x="-0.1076" y="30" width="50" height="50" relative="1" as="geometry">
            <mxPoint x="720" y="1290" as="sourcePoint" />
            <mxPoint x="820" y="1290" as="targetPoint" />
            <mxPoint x="1" as="offset" />
          </mxGeometry>
        </mxCell>
        <mxCell id="SGLUg8fZmtAf4TUcIjIm-77" value="&amp;lt;&amp;lt;Include&amp;gt;&amp;gt;" style="endArrow=none;html=1;rounded=0;entryX=0.5;entryY=1;entryDx=0;entryDy=0;startArrow=classic;startFill=0;exitX=0.5;exitY=0;exitDx=0;exitDy=0;" parent="1" source="SGLUg8fZmtAf4TUcIjIm-71" target="SGLUg8fZmtAf4TUcIjIm-67" edge="1">
          <mxGeometry x="0.1" y="-41" width="50" height="50" relative="1" as="geometry">
            <mxPoint x="710" y="1350" as="sourcePoint" />
            <mxPoint x="818" y="1268" as="targetPoint" />
            <mxPoint as="offset" />
          </mxGeometry>
        </mxCell>
        <mxCell id="SGLUg8fZmtAf4TUcIjIm-78" value="&amp;lt;&amp;lt;Include&amp;gt;&amp;gt;" style="endArrow=none;html=1;rounded=0;entryX=0.5;entryY=1;entryDx=0;entryDy=0;startArrow=classic;startFill=0;exitX=0.5;exitY=0;exitDx=0;exitDy=0;" parent="1" target="SGLUg8fZmtAf4TUcIjIm-71" edge="1" source="SGLUg8fZmtAf4TUcIjIm-73">
          <mxGeometry x="0.1" y="-41" width="50" height="50" relative="1" as="geometry">
            <mxPoint x="820" y="1470" as="sourcePoint" />
            <mxPoint x="840" y="1410" as="targetPoint" />
            <mxPoint as="offset" />
          </mxGeometry>
        </mxCell>
        <mxCell id="SGLUg8fZmtAf4TUcIjIm-79" value="Telegram/Whatsapp API" style="shape=umlActor;verticalLabelPosition=bottom;verticalAlign=top;html=1;outlineConnect=0;" parent="1" vertex="1">
          <mxGeometry x="1010" y="1470" width="30" height="60" as="geometry" />
        </mxCell>
        <mxCell id="SGLUg8fZmtAf4TUcIjIm-82" value="Notificação de Email" style="text;html=1;align=center;verticalAlign=middle;whiteSpace=wrap;rounded=0;" parent="1" vertex="1">
          <mxGeometry x="635" y="1160" width="210" height="30" as="geometry" />
        </mxCell>
        <mxCell id="SGLUg8fZmtAf4TUcIjIm-85" value="" style="rounded=0;whiteSpace=wrap;html=1;fillColor=none;" parent="1" vertex="1">
          <mxGeometry x="140" y="1680" width="210" height="180" as="geometry" />
        </mxCell>
        <mxCell id="SGLUg8fZmtAf4TUcIjIm-86" value="Professor" style="shape=umlActor;verticalLabelPosition=bottom;verticalAlign=top;html=1;outlineConnect=0;" parent="1" vertex="1">
          <mxGeometry x="70" y="1740" width="30" height="60" as="geometry" />
        </mxCell>
        <mxCell id="SGLUg8fZmtAf4TUcIjIm-87" value="Enviar email" style="ellipse;whiteSpace=wrap;html=1;" parent="1" vertex="1">
          <mxGeometry x="185" y="1730" width="120" height="80" as="geometry" />
        </mxCell>
        <mxCell id="SGLUg8fZmtAf4TUcIjIm-88" value="" style="endArrow=none;html=1;rounded=0;" parent="1" edge="1">
          <mxGeometry width="50" height="50" relative="1" as="geometry">
            <mxPoint x="110" y="1770" as="sourcePoint" />
            <mxPoint x="170" y="1770" as="targetPoint" />
          </mxGeometry>
        </mxCell>
        <mxCell id="SGLUg8fZmtAf4TUcIjIm-89" value="Fora do Sistema" style="text;html=1;align=center;verticalAlign=middle;whiteSpace=wrap;rounded=0;" parent="1" vertex="1">
          <mxGeometry x="140" y="1690" width="210" height="30" as="geometry" />
        </mxCell>
        <mxCell id="SGLUg8fZmtAf4TUcIjIm-90" value="" style="endArrow=classic;html=1;rounded=0;" parent="1" edge="1">
          <mxGeometry width="50" height="50" relative="1" as="geometry">
            <mxPoint x="350" y="1760" as="sourcePoint" />
            <mxPoint x="435" y="1700" as="targetPoint" />
          </mxGeometry>
        </mxCell>
        <mxCell id="SGLUg8fZmtAf4TUcIjIm-91" value="Gmail API" style="shape=umlActor;verticalLabelPosition=bottom;verticalAlign=top;html=1;outlineConnect=0;" parent="1" vertex="1">
          <mxGeometry x="460" y="1650" width="30" height="60" as="geometry" />
        </mxCell>
        <mxCell id="SGLUg8fZmtAf4TUcIjIm-92" value="" style="endArrow=none;html=1;rounded=0;" parent="1" edge="1">
          <mxGeometry width="50" height="50" relative="1" as="geometry">
            <mxPoint x="490" y="1690" as="sourcePoint" />
            <mxPoint x="570" y="1690" as="targetPoint" />
          </mxGeometry>
        </mxCell>
        <mxCell id="SGLUg8fZmtAf4TUcIjIm-93" value="Capturar conteúdo do email" style="ellipse;whiteSpace=wrap;html=1;" parent="1" vertex="1">
          <mxGeometry x="580" y="1650" width="120" height="80" as="geometry" />
        </mxCell>
        <mxCell id="SGLUg8fZmtAf4TUcIjIm-94" value="Classificar email" style="ellipse;whiteSpace=wrap;html=1;" parent="1" vertex="1">
          <mxGeometry x="800" y="1650" width="120" height="80" as="geometry" />
        </mxCell>
        <mxCell id="SGLUg8fZmtAf4TUcIjIm-95" value="&lt;div&gt;N8N&lt;/div&gt;" style="shape=umlActor;verticalLabelPosition=bottom;verticalAlign=top;html=1;outlineConnect=0;" parent="1" vertex="1">
          <mxGeometry x="1020" y="1650" width="30" height="60" as="geometry" />
        </mxCell>
        <mxCell id="SGLUg8fZmtAf4TUcIjIm-96" value="" style="endArrow=none;html=1;rounded=0;" parent="1" edge="1">
          <mxGeometry width="50" height="50" relative="1" as="geometry">
            <mxPoint x="930" y="1690" as="sourcePoint" />
            <mxPoint x="1010" y="1690" as="targetPoint" />
          </mxGeometry>
        </mxCell>
        <mxCell id="SGLUg8fZmtAf4TUcIjIm-97" value="Calendar API" style="shape=umlActor;verticalLabelPosition=bottom;verticalAlign=top;html=1;outlineConnect=0;" parent="1" vertex="1">
          <mxGeometry x="1020" y="1940" width="30" height="60" as="geometry" />
        </mxCell>
        <mxCell id="SGLUg8fZmtAf4TUcIjIm-98" value="Extrair e formatar&amp;nbsp;&lt;div&gt;dados do email&amp;nbsp;&lt;/div&gt;" style="ellipse;whiteSpace=wrap;html=1;" parent="1" vertex="1">
          <mxGeometry x="795" y="1785" width="130" height="90" as="geometry" />
        </mxCell>
        <mxCell id="SGLUg8fZmtAf4TUcIjIm-101" value="&amp;lt;&amp;lt;Include&amp;gt;&amp;gt;" style="endArrow=classic;html=1;rounded=0;exitX=1;exitY=0.5;exitDx=0;exitDy=0;entryX=0;entryY=0.5;entryDx=0;entryDy=0;startArrow=none;startFill=0;endFill=1;" parent="1" source="SGLUg8fZmtAf4TUcIjIm-93" target="SGLUg8fZmtAf4TUcIjIm-94" edge="1">
          <mxGeometry y="10" width="50" height="50" relative="1" as="geometry">
            <mxPoint x="780" y="1750" as="sourcePoint" />
            <mxPoint x="690" y="1750" as="targetPoint" />
            <mxPoint as="offset" />
          </mxGeometry>
        </mxCell>
        <mxCell id="SGLUg8fZmtAf4TUcIjIm-102" value="" style="endArrow=none;html=1;rounded=0;" parent="1" edge="1">
          <mxGeometry width="50" height="50" relative="1" as="geometry">
            <mxPoint x="940" y="1830" as="sourcePoint" />
            <mxPoint x="1010" y="1830" as="targetPoint" />
          </mxGeometry>
        </mxCell>
        <mxCell id="SGLUg8fZmtAf4TUcIjIm-104" value="&amp;lt;&amp;lt;Include&amp;gt;&amp;gt;" style="endArrow=none;html=1;rounded=0;entryX=0.5;entryY=1;entryDx=0;entryDy=0;startArrow=classic;startFill=0;exitX=0.5;exitY=0;exitDx=0;exitDy=0;" parent="1" source="SGLUg8fZmtAf4TUcIjIm-98" target="SGLUg8fZmtAf4TUcIjIm-94" edge="1">
          <mxGeometry x="0.1" y="-41" width="50" height="50" relative="1" as="geometry">
            <mxPoint x="720" y="1810" as="sourcePoint" />
            <mxPoint x="828" y="1728" as="targetPoint" />
            <mxPoint as="offset" />
          </mxGeometry>
        </mxCell>
        <mxCell id="SGLUg8fZmtAf4TUcIjIm-105" value="&amp;lt;&amp;lt;Include&amp;gt;&amp;gt;" style="endArrow=none;html=1;rounded=0;entryX=0.5;entryY=1;entryDx=0;entryDy=0;startArrow=classic;startFill=0;exitX=0.5;exitY=0;exitDx=0;exitDy=0;" parent="1" target="SGLUg8fZmtAf4TUcIjIm-98" edge="1" source="SGLUg8fZmtAf4TUcIjIm-108">
          <mxGeometry x="0.1" y="-41" width="50" height="50" relative="1" as="geometry">
            <mxPoint x="830" y="1930" as="sourcePoint" />
            <mxPoint x="850" y="1870" as="targetPoint" />
            <mxPoint as="offset" />
          </mxGeometry>
        </mxCell>
        <mxCell id="SGLUg8fZmtAf4TUcIjIm-108" value="Criar evento" style="ellipse;whiteSpace=wrap;html=1;" parent="1" vertex="1">
          <mxGeometry x="795" y="1925" width="130" height="90" as="geometry" />
        </mxCell>
        <mxCell id="SGLUg8fZmtAf4TUcIjIm-109" value="Open AI API" style="shape=umlActor;verticalLabelPosition=bottom;verticalAlign=top;html=1;outlineConnect=0;" parent="1" vertex="1">
          <mxGeometry x="1020" y="1800" width="30" height="60" as="geometry" />
        </mxCell>
        <mxCell id="SGLUg8fZmtAf4TUcIjIm-112" value="" style="endArrow=none;html=1;rounded=0;" parent="1" edge="1">
          <mxGeometry width="50" height="50" relative="1" as="geometry">
            <mxPoint x="930" y="1980" as="sourcePoint" />
            <mxPoint x="1010" y="1980" as="targetPoint" />
          </mxGeometry>
        </mxCell>
        <mxCell id="SGLUg8fZmtAf4TUcIjIm-115" value="Criação do Evento no Calendar" style="text;html=1;align=center;verticalAlign=middle;whiteSpace=wrap;rounded=0;" parent="1" vertex="1">
          <mxGeometry x="655" y="1610" width="210" height="30" as="geometry" />
        </mxCell>
        <mxCell id="SGLUg8fZmtAf4TUcIjIm-117" value="" style="endArrow=none;html=1;rounded=0;" parent="1" edge="1">
          <mxGeometry width="50" height="50" relative="1" as="geometry">
            <mxPoint x="275" y="2120" as="sourcePoint" />
            <mxPoint x="355" y="2120" as="targetPoint" />
          </mxGeometry>
        </mxCell>
        <mxCell id="SGLUg8fZmtAf4TUcIjIm-118" value="Avisar sobre o início/fim de um evento" style="ellipse;whiteSpace=wrap;html=1;" parent="1" vertex="1">
          <mxGeometry x="365" y="2080" width="120" height="80" as="geometry" />
        </mxCell>
        <mxCell id="SGLUg8fZmtAf4TUcIjIm-121" value="" style="endArrow=none;html=1;rounded=0;" parent="1" edge="1">
          <mxGeometry width="50" height="50" relative="1" as="geometry">
            <mxPoint x="730" y="2119.5" as="sourcePoint" />
            <mxPoint x="810" y="2119.5" as="targetPoint" />
          </mxGeometry>
        </mxCell>
        <mxCell id="SGLUg8fZmtAf4TUcIjIm-123" value="Gerar mensagem de lembrete/encerramento" style="ellipse;whiteSpace=wrap;html=1;" parent="1" vertex="1">
          <mxGeometry x="590" y="2075" width="140" height="90" as="geometry" />
        </mxCell>
        <mxCell id="SGLUg8fZmtAf4TUcIjIm-124" value="&amp;lt;&amp;lt;Include&amp;gt;&amp;gt;" style="endArrow=classic;html=1;rounded=0;exitX=1;exitY=0.5;exitDx=0;exitDy=0;entryX=0;entryY=0.5;entryDx=0;entryDy=0;startArrow=none;startFill=0;endFill=1;" parent="1" source="SGLUg8fZmtAf4TUcIjIm-118" edge="1">
          <mxGeometry y="10" width="50" height="50" relative="1" as="geometry">
            <mxPoint x="565" y="2180" as="sourcePoint" />
            <mxPoint x="585" y="2120" as="targetPoint" />
            <mxPoint as="offset" />
          </mxGeometry>
        </mxCell>
        <mxCell id="SGLUg8fZmtAf4TUcIjIm-127" value="&amp;lt;&amp;lt;Include&amp;gt;&amp;gt;" style="endArrow=none;html=1;rounded=0;entryX=0.5;entryY=1;entryDx=0;entryDy=0;startArrow=classic;startFill=0;" parent="1" target="SGLUg8fZmtAf4TUcIjIm-123" edge="1">
          <mxGeometry x="0.1" y="-41" width="50" height="50" relative="1" as="geometry">
            <mxPoint x="660" y="2250" as="sourcePoint" />
            <mxPoint x="635" y="2300" as="targetPoint" />
            <mxPoint as="offset" />
          </mxGeometry>
        </mxCell>
        <mxCell id="SGLUg8fZmtAf4TUcIjIm-129" value="Open AI API" style="shape=umlActor;verticalLabelPosition=bottom;verticalAlign=top;html=1;outlineConnect=0;" parent="1" vertex="1">
          <mxGeometry x="827" y="2090" width="30" height="60" as="geometry" />
        </mxCell>
        <mxCell id="SGLUg8fZmtAf4TUcIjIm-132" value="Encerramento/Lembrete de Eventos" style="text;html=1;align=center;verticalAlign=middle;whiteSpace=wrap;rounded=0;" parent="1" vertex="1">
          <mxGeometry x="439" y="2040" width="210" height="30" as="geometry" />
        </mxCell>
        <mxCell id="SGLUg8fZmtAf4TUcIjIm-133" value="Calendar API" style="shape=umlActor;verticalLabelPosition=bottom;verticalAlign=top;html=1;outlineConnect=0;" parent="1" vertex="1">
          <mxGeometry x="240" y="2080" width="30" height="60" as="geometry" />
        </mxCell>
        <mxCell id="SGLUg8fZmtAf4TUcIjIm-135" value="Enviar mensagem aos alunos" style="ellipse;whiteSpace=wrap;html=1;" parent="1" vertex="1">
          <mxGeometry x="590" y="2248" width="140" height="90" as="geometry" />
        </mxCell>
        <mxCell id="SGLUg8fZmtAf4TUcIjIm-136" value="Telegram/Whatsapp API" style="shape=umlActor;verticalLabelPosition=bottom;verticalAlign=top;html=1;outlineConnect=0;" parent="1" vertex="1">
          <mxGeometry x="827" y="2263" width="30" height="60" as="geometry" />
        </mxCell>
        <mxCell id="SGLUg8fZmtAf4TUcIjIm-137" value="" style="endArrow=none;html=1;rounded=0;" parent="1" edge="1">
          <mxGeometry width="50" height="50" relative="1" as="geometry">
            <mxPoint x="730" y="2292.5" as="sourcePoint" />
            <mxPoint x="810" y="2292.5" as="targetPoint" />
          </mxGeometry>
        </mxCell>
        <mxCell id="jRDOfX8iHya0KfQIfGSS-2" value="" style="endArrow=none;html=1;rounded=0;" edge="1" parent="1">
          <mxGeometry width="50" height="50" relative="1" as="geometry">
            <mxPoint x="920" y="1369.5" as="sourcePoint" />
            <mxPoint x="1000" y="1369.5" as="targetPoint" />
          </mxGeometry>
        </mxCell>
        <mxCell id="jRDOfX8iHya0KfQIfGSS-3" value="" style="endArrow=none;html=1;rounded=0;" edge="1" parent="1">
          <mxGeometry width="50" height="50" relative="1" as="geometry">
            <mxPoint x="920" y="1509.5" as="sourcePoint" />
            <mxPoint x="1000" y="1509.5" as="targetPoint" />
          </mxGeometry>
        </mxCell>
      </root>
    </mxGraphModel>
  </diagram>
</mxfile>
